# xmcd
#
# Track frame offsets: 
#        150
#        8246
#        28015
#        48127
#        68444
#        87619
#        108455
#        127175
#        149345
#        172702
#        192066
#        217243
#
# Disc length: 2985 seconds
#
# Revision: 0
# Processed by: cddbd v1.5.2PL0 Copyright (c) Steve Scherf et al.
# Submitted via: ExactAudioCopy v0.99pb5
#
DISCID=a50ba70c
DTITLE=Tony Joe White - The Heroines
DYEAR=2004
DGENRE=Country/Blues
TTITLE0=Gabriella
TTITLE1=Can't Go Back Home
TTITLE2=Ice Cream Man
TTITLE3=Closing In On The Fire
TTITLE4=Black Porch Therapy
TTITLE5=Playa Del Carmen Nights
TTITLE6=Wild Wolf Calling Me
TTITLE7=Rich Woman Blues
TTITLE8=Robbin' My Honeycomb
TTITLE9=Fire Flies In The Storm
TTITLE10=Chaos Boogie
TTITLE11=Gabriella's Affair
EXTD=
EXTT0=
EXTT1=
EXTT2=
EXTT3=
EXTT4=
EXTT5=
EXTT6=
EXTT7=
EXTT8=
EXTT9=
EXTT10=
EXTT11=
PLAYORDER=
